<svg width="18" height="20" viewBox="0 0 18 20" fill="none" xmlns="http://www.w3.org/2000/svg">
<path d="M3 4V15.8C3 16.9201 3 17.4798 3.21799 17.9076C3.40973 18.2839 3.71547 18.5905 4.0918 18.7822C4.5192 19 5.07899 19 6.19691 19H11.8031C12.921 19 13.48 19 13.9074 18.7822C14.2837 18.5905 14.5905 18.2839 14.7822 17.9076C15 17.4802 15 16.921 15 15.8031V4M3 4H5M3 4H1M5 4H13M5 4C5 3.06812 5 2.60241 5.15224 2.23486C5.35523 1.74481 5.74432 1.35523 6.23438 1.15224C6.60192 1 7.06812 1 8 1H10C10.9319 1 11.3978 1 11.7654 1.15224C12.2554 1.35523 12.6447 1.74481 12.8477 2.23486C12.9999 2.6024 13 3.06812 13 4M13 4H15M15 4H17" stroke="#C82020" stroke-width="2" stroke-linecap="round" stroke-linejoin="round"/>
</svg>
