<svg width="16" height="16" viewBox="0 0 16 16" fill="none" xmlns="http://www.w3.org/2000/svg">
<path d="M8 10.625L10.625 8M10.625 8L8 5.375M10.625 8H1M1 3.84202V3.80017C1 2.82008 1 2.32967 1.19074 1.95532C1.35852 1.62604 1.62604 1.35852 1.95532 1.19074C2.32967 1 2.82008 1 3.80017 1H12.2002C13.1803 1 13.6696 1 14.044 1.19074C14.3733 1.35852 14.6417 1.62604 14.8094 1.95532C15 2.3293 15 2.81912 15 3.7973V12.2031C15 13.1813 15 13.6704 14.8094 14.0444C14.6417 14.3737 14.3733 14.6417 14.044 14.8094C13.67 15 13.1809 15 12.2027 15H3.7973C2.81912 15 2.3293 15 1.95532 14.8094C1.62604 14.6417 1.35852 14.3734 1.19074 14.0441C1 13.6698 1 13.1801 1 12.2V12.1562" stroke="#CFCFCF" stroke-linecap="round" stroke-linejoin="round"/>
</svg>
