<svg width="28" height="28" viewBox="0 0 28 28" fill="none" xmlns="http://www.w3.org/2000/svg">
<path fill-rule="evenodd" clip-rule="evenodd" d="M24 0H0V28H24C26.2091 28 28 26.2091 28 24V4C28 1.79086 26.2091 0 24 0ZM8 12.4444C8 9.98985 9.98985 8 12.4444 8C14.899 8 16.8889 9.98985 16.8889 12.4444C16.8889 14.899 14.899 16.8889 12.4444 16.8889C9.98985 16.8889 8 14.899 8 12.4444ZM12.4444 6C8.88528 6 6 8.88528 6 12.4444C6 16.0036 8.88528 18.8889 12.4444 18.8889C13.8632 18.8889 15.1749 18.4304 16.2394 17.6536L20.2929 21.7071C20.6834 22.0976 21.3166 22.0976 21.7071 21.7071C22.0976 21.3166 22.0976 20.6834 21.7071 20.2929L17.6536 16.2394C18.4304 15.1749 18.8889 13.8632 18.8889 12.4444C18.8889 8.88528 16.0036 6 12.4444 6Z" fill="white"/>
</svg>
