<svg width="16" height="16" viewBox="0 0 16 16" fill="none" xmlns="http://www.w3.org/2000/svg">
<path d="M13.8472 5.71536L13.5908 5.56409C13.551 5.5406 13.5314 5.52881 13.5121 5.5166C13.3209 5.39514 13.1597 5.22732 13.0421 5.02654C13.0302 5.00634 13.0191 4.98516 12.9963 4.94328C12.9735 4.90147 12.962 4.88027 12.9514 4.8593C12.8459 4.65042 12.7888 4.41764 12.7854 4.18071C12.785 4.15689 12.7851 4.13256 12.7859 4.08417L12.7909 3.76842C12.7989 3.26313 12.8029 3.0097 12.7359 2.78226C12.6765 2.58024 12.5769 2.39416 12.444 2.23625C12.2938 2.05775 12.0859 1.93041 11.6696 1.67604L11.3238 1.46476C10.9086 1.2111 10.701 1.08423 10.4806 1.03586C10.2856 0.993074 10.0844 0.995057 9.89008 1.0413C9.6708 1.0935 9.46576 1.22367 9.05591 1.48388L9.05358 1.48506L8.80581 1.64237C8.76663 1.66724 8.7468 1.67978 8.72716 1.69135C8.53229 1.80623 8.31474 1.86975 8.09189 1.87734C8.06944 1.8781 8.04659 1.8781 8.0009 1.8781C7.9555 1.8781 7.93168 1.8781 7.90927 1.87734C7.68593 1.86972 7.46794 1.80585 7.27276 1.6905C7.25309 1.67888 7.23363 1.66624 7.19438 1.64125L6.94502 1.48252C6.53237 1.21985 6.32574 1.08832 6.10524 1.03586C5.91017 0.989457 5.70826 0.988172 5.51255 1.03151C5.29159 1.08045 5.08389 1.20826 4.6685 1.46389L4.66665 1.46476L4.32516 1.67491L4.32138 1.67736C3.90973 1.93069 3.7034 2.05765 3.55445 2.23542C3.42226 2.39317 3.32346 2.57896 3.26432 2.78045C3.19748 3.0082 3.20104 3.26217 3.2091 3.76984L3.2141 4.08515C3.21486 4.1329 3.21617 4.15662 3.21584 4.18011C3.21253 4.41752 3.1547 4.65077 3.04888 4.86002C3.03842 4.88072 3.02714 4.90141 3.00462 4.94275C2.98209 4.98411 2.97117 5.00468 2.95949 5.02465C2.84134 5.22649 2.67942 5.39529 2.48698 5.51696C2.46794 5.52899 2.44788 5.54057 2.40846 5.56373L2.15527 5.7125C1.73401 5.96003 1.52343 6.0839 1.3702 6.26018C1.23465 6.41612 1.13224 6.6011 1.06974 6.80256C0.999077 7.03028 0.999137 7.28563 1.00023 7.7963L1.00112 8.21368C1.00221 8.72093 1.0037 8.97438 1.07452 9.20057C1.13717 9.40067 1.23882 9.58455 1.37362 9.73956C1.52598 9.91476 1.73447 10.0379 2.15253 10.2845L2.40347 10.4325C2.44618 10.4577 2.46767 10.4701 2.48826 10.4833C2.67895 10.605 2.83961 10.7733 2.95675 10.974C2.96941 10.9957 2.98156 11.0182 3.00585 11.0632C3.02985 11.1077 3.04212 11.1299 3.05322 11.1522C3.15593 11.3583 3.21092 11.5874 3.21467 11.8206C3.21508 11.8458 3.21473 11.8713 3.21392 11.9225L3.2091 12.225C3.20099 12.7345 3.19745 12.9895 3.26469 13.2178C3.32418 13.4199 3.4236 13.6059 3.5565 13.7638C3.70672 13.9424 3.91498 14.0696 4.33131 14.324L4.67704 14.5352C5.0922 14.7889 5.2997 14.9156 5.52011 14.964C5.71509 15.0068 5.91643 15.0051 6.11071 14.9588C6.33031 14.9066 6.53606 14.7759 6.94708 14.515L7.19485 14.3577C7.23405 14.3328 7.2539 14.3203 7.27354 14.3088C7.46841 14.1939 7.68573 14.13 7.90858 14.1224C7.93104 14.1217 7.95388 14.1217 7.99957 14.1217C8.04536 14.1217 8.06818 14.1217 8.09069 14.1224C8.31402 14.1301 8.53267 14.1941 8.72785 14.3095C8.74502 14.3196 8.76222 14.3306 8.79244 14.3498L9.05584 14.5175C9.46855 14.7802 9.67474 14.9114 9.89525 14.9638C10.0903 15.0102 10.2924 15.0121 10.4881 14.9688C10.709 14.9199 10.9171 14.7918 11.3323 14.5363L11.6789 14.323C12.0908 14.0695 12.2974 13.9424 12.4464 13.7646C12.5786 13.6068 12.6775 13.4211 12.7366 13.2196C12.803 12.9935 12.799 12.7415 12.791 12.2412L12.7859 11.9148C12.7851 11.8671 12.785 11.8433 12.7854 11.8199C12.7887 11.5825 12.8455 11.349 12.9514 11.1398C12.9618 11.1191 12.9732 11.0983 12.9956 11.0571C13.0182 11.0157 13.0298 10.9951 13.0415 10.9751C13.1597 10.7733 13.3217 10.6043 13.5142 10.4827C13.533 10.4708 13.5523 10.4594 13.5908 10.4368L13.5921 10.4361L13.8453 10.2874C14.2666 10.0398 14.4776 9.91584 14.6308 9.73956C14.7664 9.58361 14.8686 9.39889 14.9311 9.19744C15.0014 8.97105 15.0008 8.71718 14.9998 8.21248L14.9988 7.78615C14.9978 7.2789 14.9972 7.02547 14.9264 6.79929C14.8637 6.59919 14.7615 6.4153 14.6267 6.26029C14.4745 6.08526 14.2657 5.96211 13.8484 5.71599L13.8472 5.71536Z" stroke="#CFCFCF" stroke-linecap="round" stroke-linejoin="round"/>
<path d="M5.19913 8.00005C5.19913 9.64033 6.45322 10.97 8.00022 10.97C9.54722 10.97 10.8013 9.64033 10.8013 8.00005C10.8013 6.35977 9.54722 5.03006 8.00022 5.03006C6.45322 5.03006 5.19913 6.35977 5.19913 8.00005Z" stroke="#CFCFCF" stroke-linecap="round" stroke-linejoin="round"/>
</svg>
