<svg width="16" height="16" viewBox="0 0 16 16" fill="none" xmlns="http://www.w3.org/2000/svg">
<path d="M5.7806 5.72392C5.91344 5.31458 6.15678 4.9503 6.48394 4.67071C6.8111 4.39112 7.20962 4.20738 7.63466 4.13995C8.0597 4.07251 8.49484 4.12386 8.89247 4.28847C9.2901 4.45307 9.63446 4.72458 9.88748 5.0727C10.1405 5.42082 10.292 5.83199 10.3258 6.26101C10.3597 6.69004 10.2741 7.12017 10.0788 7.50364C9.88342 7.8871 9.58618 8.20883 9.21925 8.4337C8.85232 8.65858 8.43035 8.7776 8 8.7776V9.55574M8 15C4.13401 15 1 11.866 1 8C1 4.13401 4.13401 1 8 1C11.866 1 15 4.13401 15 8C15 11.866 11.866 15 8 15ZM8.03874 11.8889V11.9667L7.96126 11.9668V11.8889H8.03874Z" stroke="#CFCFCF" stroke-linecap="round" stroke-linejoin="round"/>
</svg>
